# xmcd
#
# Track frame offsets:
#	225
#	13399
#	29064
#	43703
#	57732
#	73933
#	88209
#	104336
#	118474
#	137929
#	149938
#	166575
#
# Disc length: 2392 seconds
#
# Revision: 0
# Processed by: cddbd v1.5.1PL2 Copyright (c) Steve Scherf et al.
# Submitted via: dBpowerAMP V4.0
#
DISCID=cb09550c
DTITLE=Perseguidos - No es culpa tuya
DYEAR=2006
DGENRE=Latin
TTITLE0=No es culpa tuya
TTITLE1=Porque se fue
TTITLE2=Te va a doler
TTITLE3=No vuelvas conmigo
TTITLE4=Duele
TTITLE5=Porque volviste
TTITLE6=Cada vez
TTITLE7=Porque no te atreves
TTITLE8=Te equivocaste
TTITLE9=No lo decido yo
TTITLE10=No te vayas de mi
TTITLE11=Voy a darte todo
EXTD=
EXTT0=
EXTT1=
EXTT2=
EXTT3=
EXTT4=
EXTT5=
EXTT6=
EXTT7=
EXTT8=
EXTT9=
EXTT10=
EXTT11=
PLAYORDER=
